# xmcd CD database file
#
# Track frame offsets:
#	150
#	5854
#	20357
#	34792
#	37554
#	49139
#	53723
#	59700
#	73724
#	89487
#	92183
#	104120
#	107222
#	113140
#	126436
#	144381
#	146493
#	156248
#	160574
#	165818
#	174598
#	187733
#	190198
#	207023
#
# Disc length: 2856 seconds
#
# Revision: 0
# Processed by: cddbd v1.5.2PL0 Copyright (c) Steve Scherf et al.
# Submitted via: CDex 2.07
#
DISCID=490b2618
DTITLE=Hank Williams - The Complete Health and Happiness Shows [CD2]
DYEAR=2019
DGENRE=Country
TTITLE0=Happy Rovin' Cowboy (Theme)
TTITLE1=Mansion On The Hill
TTITLE2=There'll Be No Teardrops Tonight
TTITLE3=Tennessee Wagner
TTITLE4=The Prodigal Son
TTITLE5=Sally Goodin'
TTITLE6=Happy Rovin' Cowboy (Theme)
TTITLE7=Pan American
TTITLE8=Lovesick Blues
TTITLE9=Arkansas Traveler
TTITLE10=I Saw The Light
TTITLE11=Sally Goodin'
TTITLE12=Happy Rovin' Cowboy (Theme)
TTITLE13=Mind Your Own Business
TTITLE14=Wedding Bells
TTITLE15=Cotton Eyed Joe
TTITLE16=I've Just Told Mama Goodbye
TTITLE17=Sally Goodin'
TTITLE18=Happy Rovin' Cowboy (Theme)
TTITLE19=I Can't Get You Off My Mind
TTITLE20=I'm So Lonesome I Could Cry
TTITLE21=Fisherman's Hornpipe
TTITLE22=Thy Burdens Are Greater Than Mine
TTITLE23=Sally Goodin'
EXTD=YEAR: 2019
EXTT0=
EXTT1=
EXTT2=
EXTT3=
EXTT4=
EXTT5=
EXTT6=
EXTT7=
EXTT8=
EXTT9=
EXTT10=
EXTT11=
EXTT12=
EXTT13=
EXTT14=
EXTT15=
EXTT16=
EXTT17=
EXTT18=
EXTT19=
EXTT20=
EXTT21=
EXTT22=
EXTT23=
PLAYORDER=
